<svg xmlns="http://www.w3.org/2000/svg" viewBox="0 0 796.97 105.6"><defs><style>.cls-1{fill:#260cbc;}</style></defs><title>Recurso 1</title><g id="Capa_2" data-name="Capa 2"><g id="Capa_2-2" data-name="Capa 2"><path class="cls-1" d="M384.8,52.6c3.71,2.77,7.86,4.89,10.7,8.15,10.65,12.27,5.9,30.85-9.58,36.69A59.27,59.27,0,0,1,367.13,101c-16.33.49-32.69.17-49,.17-.39,0-.79-.1-1.51-.19-.08-1.09-.23-2.17-.23-3.24,0-28.41,0-56.81-.07-85.22,0-3,.86-3.77,3.79-3.74,15.43.16,30.86,0,46.28.19a39.09,39.09,0,0,1,18.23,4.56,22.06,22.06,0,0,1,2.19,37.64C386,51.74,385.19,52.32,384.8,52.6Zm-32,9.07,0,.29c-4.39,0-8.79.08-13.18,0-2-.06-2.64.7-2.61,2.66.09,5.93.15,11.86,0,17.78-.07,2.65,1,3.27,3.4,3.23,7.66-.12,15.33.13,23-.13a35.61,35.61,0,0,0,9.85-1.81c4-1.32,6.27-4.39,6.5-8.75.35-6.79-3.06-11.26-10.12-12.21C364.06,62,358.42,62,352.82,61.67Zm-15.6-37.54c-.09,1.8-.17,2.71-.18,3.61,0,5.72,0,11.44,0,17.16,0,2,1.24,2,2.66,2,5.92,0,11.85.06,17.77,0a46.16,46.16,0,0,0,7.61-.64c4.28-.78,8.05-2.54,9.55-7.09,2.19-6.61-1.14-12.93-8.48-13.79C356.69,24.28,347.08,24.49,337.22,24.13Z"/><path class="cls-1" d="M542.41,45.68V101H522c-.08-1.14-.24-2.31-.24-3.49,0-28.31,0-56.62-.07-84.93,0-2.94.77-4,3.76-3.76,4.48.28,9.59-1.14,13.3.6s6,6.43,8.86,9.89Q565,40.37,582.23,61.48c.87,1.06,1.83,2,3.4,3.76V9.09H606v92.09c-5.42,0-10.71.07-16-.08-.8,0-1.73-1-2.34-1.69Q566.76,74,545.87,48.5c-.88-1.07-1.82-2.1-2.72-3.16Z"/><path class="cls-1" d="M630.12,9h20.74V52.22c1.84-1.79,3-2.85,4.08-4q17.92-18.91,35.83-37.84A4.23,4.23,0,0,1,693.29,9c7.1-.12,14.21-.07,22.05-.07-3.85,4.17-7.2,7.83-10.57,11.46-8.49,9.13-16.94,18.29-25.52,27.33-1.63,1.7-1.62,2.73-.17,4.53q18.25,22.88,36.34,45.89c.68.85,1.31,1.75,2.3,3.09-8,0-15.54.07-23-.09-1,0-2.1-1.1-2.81-2q-12.95-15.74-25.79-31.56c-.7-.87-1.44-1.7-2.19-2.59-2.75,2.59-5.23,5.26-8,7.51-4.25,3.39-5.43,7.62-5,12.88s.08,10.35.08,15.67H630.12Z"/><path class="cls-1" d="M510.22,101.18c-7.27,0-14,.07-20.69-.09-.74,0-1.75-1.21-2.13-2.08-2.2-5-4.32-10.13-6.3-15.26a3.55,3.55,0,0,0-3.84-2.64q-19,.12-38,0a3.59,3.59,0,0,0-3.89,2.62c-2,5-4.18,10-6.13,15-.68,1.77-1.52,2.55-3.52,2.51-6.11-.13-12.23,0-18.86,0,1.52-3.49,2.85-6.64,4.25-9.77q17.67-39.66,35.32-79.35c1.05-2.37,2.21-3.42,4.93-3.29,5.09.25,10.21,0,15.31.15a3.74,3.74,0,0,1,2.83,1.51C483.05,40.44,496.48,70.49,510.22,101.18Zm-36.86-36c-5-12.14-9.85-23.76-15.05-36.32L443.26,65.21Z"/><path class="cls-1" d="M792.79,15.3c-2.17,5.28-4.24,10.34-6.06,14.79-6.91-2-13.33-4.37-20-5.72a30.24,30.24,0,0,0-16.9,1.14c-4.51,1.7-6.94,4.91-7,9.06s1.84,6.75,6.79,8.28c7.78,2.4,15.73,4.24,23.53,6.58a60.43,60.43,0,0,1,12,4.61c15.33,8.46,14.09,27.18,5.41,36.89A33,33,0,0,1,771,101.38c-16.33,2.83-32.11,1.27-46.91-6.73-4-2.15-4-2.23-2.18-6.19s3.5-7.76,5-11c6.57,2.47,12.71,5.18,19.09,7.06a40.14,40.14,0,0,0,21.77.38c3.93-1,7.21-3.08,8.09-7.44.78-3.92-.77-7.25-5.15-9-5.25-2.15-10.81-3.53-16.26-5.17-5.07-1.52-10.27-2.68-15.24-4.46-9.91-3.55-16.59-10-17.14-21.16-.52-10.59,3.88-18.85,13-24.35,9.38-5.68,19.82-6.67,30.45-6,8.7.56,17.16,2.4,25,6.56C791.1,14.22,791.77,14.68,792.79,15.3Z"/><path class="cls-1" d="M257.6,105.55c-25.89.69-46.6-22.86-46.51-46.81.09-25.44,21.45-46.68,47.07-46.65,25,0,46.3,21.54,46.36,46.75C304.59,84.38,283.3,105.56,257.6,105.55Zm38.13-46.76c1.8-18.64-16.91-37.83-37.63-38.27-19.58-.41-38.27,17.85-38.58,38.27-.29,19.43,17.64,38.32,38.29,38.62C276.87,97.69,297,79.55,295.73,58.79Z"/><path class="cls-1" d="M117,67.44c1.29,9.73,5.94,16.92,12.9,22.67s15.47,8,24.79,7.07v7.94c-16.08,2.55-31.18-5.19-40.55-20.77a41.67,41.67,0,0,1,5.36-49.7c14.32-15.59,35.6-16.6,48.49-10.54,17,8,27.23,25.66,24.82,43.33Zm67.35-8.51c.91-14.81-16.75-30.11-34-29.9-16.59.21-33.94,16-32.71,29.9Z"/><path class="cls-1" d="M76,83.92V52.71h8.24v52.83L8.81,22.39l-.75.18V52.69H0V0Z"/></g></g></svg>